<?xml version="1.0" encoding="UTF-8" standalone="no"?>
<!DOCTYPE svg PUBLIC "-//W3C//DTD SVG 1.1//EN"
 "http://www.w3.org/Graphics/SVG/1.1/DTD/svg11.dtd">
<!-- Generated by graphviz version 14.1.2 (0)
 -->
<!-- Title: TabulaOverview Pages: 1 -->
<svg width="1176pt" height="584pt"
 viewBox="0.00 0.00 1176.00 584.00" xmlns="http://www.w3.org/2000/svg" xmlns:xlink="http://www.w3.org/1999/xlink">
<g id="graph0" class="graph" transform="scale(1 1) rotate(0) translate(4 580.32)">
<title>TabulaOverview</title>
<polygon fill="white" stroke="none" points="-4,4 -4,-580.32 1172,-580.32 1172,4 -4,4"/>
<text xml:space="preserve" text-anchor="middle" x="584" y="-559.02" font-family="Helvetica,sans-Serif" font-size="14.00">Tabula Project Overview</text>
<g id="clust1" class="cluster">
<title>cluster_entry</title>
<polygon fill="white" stroke="#cbd5e1" points="265.5,-319 265.5,-449 545.75,-449 545.75,-319 265.5,-319"/>
<text xml:space="preserve" text-anchor="middle" x="405.62" y="-431.7" font-family="Helvetica,sans-Serif" font-size="14.00">Entry / Tooling</text>
</g>
<g id="clust2" class="cluster">
<title>cluster_core</title>
<polygon fill="white" stroke="#cbd5e1" points="678.62,-273 678.62,-403 1160,-403 1160,-273 678.62,-273"/>
<text xml:space="preserve" text-anchor="middle" x="919.31" y="-385.7" font-family="Helvetica,sans-Serif" font-size="14.00">Core MCP + Canvas</text>
</g>
<g id="clust3" class="cluster">
<title>cluster_runtime</title>
<polygon fill="white" stroke="#cbd5e1" points="420.38,-8 420.38,-243 989.88,-243 989.88,-8 420.38,-8"/>
<text xml:space="preserve" text-anchor="middle" x="705.12" y="-225.7" font-family="Helvetica,sans-Serif" font-size="14.00">Runtime Modes</text>
</g>
<g id="clust4" class="cluster">
<title>cluster_quality</title>
<polygon fill="white" stroke="#cbd5e1" points="8,-235 8,-365 195.25,-365 195.25,-235 8,-235"/>
<text xml:space="preserve" text-anchor="middle" x="101.62" y="-347.7" font-family="Helvetica,sans-Serif" font-size="14.00">Quality + Specs</text>
</g>
<!-- cli -->
<g id="node1" class="node">
<title>cli</title>
<path fill="#f8fafc" stroke="#1f2937" d="M315.5,-382C315.5,-382 285.5,-382 285.5,-382 279.5,-382 273.5,-376 273.5,-370 273.5,-370 273.5,-358 273.5,-358 273.5,-352 279.5,-346 285.5,-346 285.5,-346 315.5,-346 315.5,-346 321.5,-346 327.5,-352 327.5,-358 327.5,-358 327.5,-370 327.5,-370 327.5,-376 321.5,-382 315.5,-382"/>
<text xml:space="preserve" text-anchor="middle" x="300.5" y="-365.75" font-family="Helvetica,sans-Serif" font-size="10.00">CLI</text>
<text xml:space="preserve" text-anchor="middle" x="300.5" y="-354.5" font-family="Helvetica,sans-Serif" font-size="10.00">cli.py</text>
</g>
<!-- protocol -->
<g id="node2" class="node">
<title>protocol</title>
<path fill="#f8fafc" stroke="#1f2937" d="M520.5,-363C520.5,-363 445.25,-363 445.25,-363 439.25,-363 433.25,-357 433.25,-351 433.25,-351 433.25,-339 433.25,-339 433.25,-333 439.25,-327 445.25,-327 445.25,-327 520.5,-327 520.5,-327 526.5,-327 532.5,-333 532.5,-339 532.5,-339 532.5,-351 532.5,-351 532.5,-357 526.5,-363 520.5,-363"/>
<text xml:space="preserve" text-anchor="middle" x="482.88" y="-346.75" font-family="Helvetica,sans-Serif" font-size="10.00">Bootstrap Protocol</text>
<text xml:space="preserve" text-anchor="middle" x="482.88" y="-335.5" font-family="Helvetica,sans-Serif" font-size="10.00">protocol.py</text>
</g>
<!-- cli&#45;&gt;protocol -->
<g id="edge2" class="edge">
<title>cli&#45;&gt;protocol</title>
<path fill="none" stroke="#475569" stroke-width="1.2" d="M327.73,-361.24C352.72,-358.6 391.2,-354.55 423.47,-351.15"/>
<polygon fill="#475569" stroke="#475569" stroke-width="1.2" points="423.35,-353.98 431.02,-350.36 422.77,-348.41 423.35,-353.98"/>
<text xml:space="preserve" text-anchor="middle" x="377.75" y="-359.35" font-family="Helvetica,sans-Serif" font-size="9.00">bootstrap</text>
</g>
<!-- runner -->
<g id="node3" class="node">
<title>runner</title>
<path fill="#f8fafc" stroke="#1f2937" d="M525.75,-417C525.75,-417 440,-417 440,-417 434,-417 428,-411 428,-405 428,-405 428,-393 428,-393 428,-387 434,-381 440,-381 440,-381 525.75,-381 525.75,-381 531.75,-381 537.75,-387 537.75,-393 537.75,-393 537.75,-405 537.75,-405 537.75,-411 531.75,-417 525.75,-417"/>
<text xml:space="preserve" text-anchor="middle" x="482.88" y="-400.75" font-family="Helvetica,sans-Serif" font-size="10.00">Assistant Launch</text>
<text xml:space="preserve" text-anchor="middle" x="482.88" y="-389.5" font-family="Helvetica,sans-Serif" font-size="10.00">run + mcp&#45;http&#45;bridge</text>
</g>
<!-- cli&#45;&gt;runner -->
<g id="edge6" class="edge">
<title>cli&#45;&gt;runner</title>
<path fill="none" stroke="#475569" stroke-width="1.2" d="M327.73,-369.09C351.37,-373.68 387.09,-380.61 418.2,-386.64"/>
<polygon fill="#475569" stroke="#475569" stroke-width="1.2" points="417.52,-389.36 425.9,-388.14 418.58,-383.87 417.52,-389.36"/>
<text xml:space="preserve" text-anchor="middle" x="377.75" y="-385.08" font-family="Helvetica,sans-Serif" font-size="9.00">run</text>
</g>
<!-- mcp -->
<g id="node4" class="node">
<title>mcp</title>
<path fill="#f8fafc" stroke="#1f2937" d="M757.38,-317C757.38,-317 698.62,-317 698.62,-317 692.62,-317 686.62,-311 686.62,-305 686.62,-305 686.62,-293 686.62,-293 686.62,-287 692.62,-281 698.62,-281 698.62,-281 757.38,-281 757.38,-281 763.38,-281 769.38,-287 769.38,-293 769.38,-293 769.38,-305 769.38,-305 769.38,-311 763.38,-317 757.38,-317"/>
<text xml:space="preserve" text-anchor="middle" x="728" y="-300.75" font-family="Helvetica,sans-Serif" font-size="10.00">MCP Server</text>
<text xml:space="preserve" text-anchor="middle" x="728" y="-289.5" font-family="Helvetica,sans-Serif" font-size="10.00">mcp_server.py</text>
</g>
<!-- cli&#45;&gt;mcp -->
<g id="edge3" class="edge">
<title>cli&#45;&gt;mcp</title>
<path fill="none" stroke="#475569" stroke-width="1.2" d="M322.53,-382.31C329.53,-387.83 337.57,-393.59 345.5,-398 424.02,-441.7 457.99,-445.35 545.75,-426 593.23,-415.53 611.69,-415.41 645,-380 660.04,-364.01 648.5,-350.48 663,-334 667.33,-329.08 672.52,-324.72 678.05,-320.9"/>
<polygon fill="#475569" stroke="#475569" stroke-width="1.2" points="679.53,-323.27 684.8,-316.64 676.54,-318.54 679.53,-323.27"/>
<text xml:space="preserve" text-anchor="middle" x="482.88" y="-437.62" font-family="Helvetica,sans-Serif" font-size="9.00">mcp&#45;server / stdio</text>
</g>
<!-- serve -->
<g id="node9" class="node">
<title>serve</title>
<path fill="#f8fafc" stroke="#1f2937" d="M781,-57.88C781,-57.88 675,-57.88 675,-57.88 669,-57.88 663,-51.88 663,-45.88 663,-45.88 663,-28.13 663,-28.13 663,-22.12 669,-16.12 675,-16.12 675,-16.12 781,-16.12 781,-16.12 787,-16.12 793,-22.12 793,-28.12 793,-28.12 793,-45.88 793,-45.88 793,-51.88 787,-57.88 781,-57.88"/>
<text xml:space="preserve" text-anchor="middle" x="728" y="-44.38" font-family="Helvetica,sans-Serif" font-size="10.00">HTTP Daemon</text>
<text xml:space="preserve" text-anchor="middle" x="728" y="-33.12" font-family="Helvetica,sans-Serif" font-size="10.00">serve.py</text>
<text xml:space="preserve" text-anchor="middle" x="728" y="-21.88" font-family="Helvetica,sans-Serif" font-size="10.00">/mcp + /ws/canvas + /files</text>
</g>
<!-- cli&#45;&gt;serve -->
<g id="edge4" class="edge">
<title>cli&#45;&gt;serve</title>
<path fill="none" stroke="#475569" stroke-width="1.2" d="M303.41,-345.66C309.68,-295.61 334.47,-156.11 420.38,-92 487.61,-41.82 585.94,-32.26 653.01,-32.51"/>
<polygon fill="#475569" stroke="#475569" stroke-width="1.2" points="652.82,-35.31 660.85,-32.6 652.88,-29.71 652.82,-35.31"/>
<text xml:space="preserve" text-anchor="middle" x="482.88" y="-92.45" font-family="Helvetica,sans-Serif" font-size="9.00">serve</text>
</g>
<!-- web -->
<g id="node10" class="node">
<title>web</title>
<path fill="#f8fafc" stroke="#1f2937" d="M510.75,-146C510.75,-146 455,-146 455,-146 449,-146 443,-140 443,-134 443,-134 443,-122 443,-122 443,-116 449,-110 455,-110 455,-110 510.75,-110 510.75,-110 516.75,-110 522.75,-116 522.75,-122 522.75,-122 522.75,-134 522.75,-134 522.75,-140 516.75,-146 510.75,-146"/>
<text xml:space="preserve" text-anchor="middle" x="482.88" y="-129.75" font-family="Helvetica,sans-Serif" font-size="10.00">Web App</text>
<text xml:space="preserve" text-anchor="middle" x="482.88" y="-118.5" font-family="Helvetica,sans-Serif" font-size="10.00">web/server.py</text>
</g>
<!-- cli&#45;&gt;web -->
<g id="edge5" class="edge">
<title>cli&#45;&gt;web</title>
<path fill="none" stroke="#475569" stroke-width="1.2" d="M327.62,-350.4C353.4,-335.44 391.56,-308.82 410,-274 432.57,-231.39 394.9,-206.94 420.38,-166 424.11,-159.99 429.19,-154.79 434.83,-150.32"/>
<polygon fill="#475569" stroke="#475569" stroke-width="1.2" points="436.4,-152.64 441.31,-145.74 433.17,-148.07 436.4,-152.64"/>
<text xml:space="preserve" text-anchor="middle" x="377.75" y="-338.31" font-family="Helvetica,sans-Serif" font-size="9.00">web</text>
</g>
<!-- runner&#45;&gt;mcp -->
<g id="edge7" class="edge">
<title>runner&#45;&gt;mcp</title>
<path fill="none" stroke="#475569" stroke-width="1.2" d="M528.75,-380.54C570.89,-363.21 633.82,-337.33 677.43,-319.39"/>
<polygon fill="#475569" stroke="#475569" stroke-width="1.2" points="678.41,-322.01 684.75,-316.38 676.28,-316.83 678.41,-322.01"/>
<text xml:space="preserve" text-anchor="middle" x="600.38" y="-367.1" font-family="Helvetica,sans-Serif" font-size="9.00">stdio or HTTP bridge</text>
</g>
<!-- adapter -->
<g id="node5" class="node">
<title>adapter</title>
<path fill="#f8fafc" stroke="#1f2937" d="M987.5,-336C987.5,-336 908.5,-336 908.5,-336 902.5,-336 896.5,-330 896.5,-324 896.5,-324 896.5,-312 896.5,-312 896.5,-306 902.5,-300 908.5,-300 908.5,-300 987.5,-300 987.5,-300 993.5,-300 999.5,-306 999.5,-312 999.5,-312 999.5,-324 999.5,-324 999.5,-330 993.5,-336 987.5,-336"/>
<text xml:space="preserve" text-anchor="middle" x="948" y="-319.75" font-family="Helvetica,sans-Serif" font-size="10.00">Canvas Adapter</text>
<text xml:space="preserve" text-anchor="middle" x="948" y="-308.5" font-family="Helvetica,sans-Serif" font-size="10.00">canvas_adapter.py</text>
</g>
<!-- mcp&#45;&gt;adapter -->
<g id="edge8" class="edge">
<title>mcp&#45;&gt;adapter</title>
<path fill="none" stroke="#475569" stroke-width="1.2" d="M769.75,-302.55C802.56,-305.41 849.17,-309.47 886.36,-312.71"/>
<polygon fill="#475569" stroke="#475569" stroke-width="1.2" points="886.06,-315.5 894.27,-313.4 886.55,-309.92 886.06,-315.5"/>
<text xml:space="preserve" text-anchor="middle" x="844.75" y="-312.3" font-family="Helvetica,sans-Serif" font-size="9.00">tool dispatch</text>
</g>
<!-- events -->
<g id="node6" class="node">
<title>events</title>
<path fill="#f8fafc" stroke="#1f2937" d="M1135.88,-317C1135.88,-317 1087.62,-317 1087.62,-317 1081.62,-317 1075.62,-311 1075.62,-305 1075.62,-305 1075.62,-293 1075.62,-293 1075.62,-287 1081.62,-281 1087.62,-281 1087.62,-281 1135.88,-281 1135.88,-281 1141.88,-281 1147.88,-287 1147.88,-293 1147.88,-293 1147.88,-305 1147.88,-305 1147.88,-311 1141.88,-317 1135.88,-317"/>
<text xml:space="preserve" text-anchor="middle" x="1111.75" y="-300.75" font-family="Helvetica,sans-Serif" font-size="10.00">Event Model</text>
<text xml:space="preserve" text-anchor="middle" x="1111.75" y="-289.5" font-family="Helvetica,sans-Serif" font-size="10.00">events.py</text>
</g>
<!-- adapter&#45;&gt;events -->
<g id="edge9" class="edge">
<title>adapter&#45;&gt;events</title>
<path fill="none" stroke="#475569" stroke-width="1.2" d="M999.73,-312.04C1020.91,-309.55 1045.31,-306.69 1065.83,-304.28"/>
<polygon fill="#475569" stroke="#475569" stroke-width="1.2" points="1066.14,-307.06 1073.76,-303.35 1065.48,-301.5 1066.14,-307.06"/>
<text xml:space="preserve" text-anchor="middle" x="1035.5" y="-310.09" font-family="Helvetica,sans-Serif" font-size="9.00">emit/parse</text>
</g>
<!-- state -->
<g id="node7" class="node">
<title>state</title>
<path fill="#f8fafc" stroke="#1f2937" d="M1140,-371C1140,-371 1083.5,-371 1083.5,-371 1077.5,-371 1071.5,-365 1071.5,-359 1071.5,-359 1071.5,-347 1071.5,-347 1071.5,-341 1077.5,-335 1083.5,-335 1083.5,-335 1140,-335 1140,-335 1146,-335 1152,-341 1152,-347 1152,-347 1152,-359 1152,-359 1152,-365 1146,-371 1140,-371"/>
<text xml:space="preserve" text-anchor="middle" x="1111.75" y="-354.75" font-family="Helvetica,sans-Serif" font-size="10.00">State Reducer</text>
<text xml:space="preserve" text-anchor="middle" x="1111.75" y="-343.5" font-family="Helvetica,sans-Serif" font-size="10.00">state.py</text>
</g>
<!-- adapter&#45;&gt;state -->
<g id="edge10" class="edge">
<title>adapter&#45;&gt;state</title>
<path fill="none" stroke="#475569" stroke-width="1.2" d="M999.73,-328.98C1019.56,-333.27 1042.21,-338.17 1061.85,-342.42"/>
<polygon fill="#475569" stroke="#475569" stroke-width="1.2" points="1061.04,-345.11 1069.45,-344.06 1062.23,-339.64 1061.04,-345.11"/>
<text xml:space="preserve" text-anchor="middle" x="1035.5" y="-340.11" font-family="Helvetica,sans-Serif" font-size="9.00">reduce</text>
</g>
<!-- window -->
<g id="node8" class="node">
<title>window</title>
<path fill="#f8fafc" stroke="#1f2937" d="M525.38,-211C525.38,-211 440.38,-211 440.38,-211 434.38,-211 428.38,-205 428.38,-199 428.38,-199 428.38,-187 428.38,-187 428.38,-181 434.38,-175 440.38,-175 440.38,-175 525.38,-175 525.38,-175 531.38,-175 537.38,-181 537.38,-187 537.38,-187 537.38,-199 537.38,-199 537.38,-205 531.38,-211 525.38,-211"/>
<text xml:space="preserve" text-anchor="middle" x="482.88" y="-194.75" font-family="Helvetica,sans-Serif" font-size="10.00">Desktop Canvas</text>
<text xml:space="preserve" text-anchor="middle" x="482.88" y="-183.5" font-family="Helvetica,sans-Serif" font-size="10.00">window.py (PySide6)</text>
</g>
<!-- adapter&#45;&gt;window -->
<g id="edge11" class="edge">
<title>adapter&#45;&gt;window</title>
<path fill="none" stroke="#475569" stroke-width="1.2" d="M904.17,-336.45C826.85,-366.61 662.15,-416.06 555.75,-342 545.25,-334.69 550.87,-326.73 545.75,-315 531.1,-281.47 511.67,-244.11 498.52,-219.67"/>
<polygon fill="#475569" stroke="#475569" stroke-width="1.2" points="501.12,-218.59 494.85,-212.88 496.19,-221.25 501.12,-218.59"/>
<text xml:space="preserve" text-anchor="middle" x="728" y="-381.21" font-family="Helvetica,sans-Serif" font-size="9.00">local GUI mode</text>
</g>
<!-- serve&#45;&gt;mcp -->
<g id="edge12" class="edge">
<title>serve&#45;&gt;mcp</title>
<path fill="none" stroke="#475569" stroke-width="1.2" d="M665.11,-58.37C627.3,-75.44 588.38,-102.94 599.15,-141.5 613.88,-194.29 626.85,-205.8 663,-247 671.81,-257.04 682.73,-266.61 693.09,-274.74"/>
<polygon fill="#475569" stroke="#475569" stroke-width="1.2" points="691.36,-276.94 699.42,-279.56 694.75,-272.48 691.36,-276.94"/>
<text xml:space="preserve" text-anchor="middle" x="600.38" y="-132.95" font-family="Helvetica,sans-Serif" font-size="9.00">wraps server</text>
</g>
<!-- serve&#45;&gt;adapter -->
<g id="edge13" class="edge">
<title>serve&#45;&gt;adapter</title>
<path fill="none" stroke="#475569" stroke-width="1.2" d="M782.35,-58.23C786.19,-60.86 789.8,-63.78 793,-67 806.46,-80.54 802.04,-89.14 811,-106 845.41,-170.71 856.23,-185.76 896.5,-247 906.41,-262.07 918.05,-278.51 927.65,-291.77"/>
<polygon fill="#475569" stroke="#475569" stroke-width="1.2" points="925.29,-293.28 932.26,-298.1 929.82,-289.99 925.29,-293.28"/>
<text xml:space="preserve" text-anchor="middle" x="844.75" y="-218.31" font-family="Helvetica,sans-Serif" font-size="9.00">headless adapter</text>
</g>
<!-- static -->
<g id="node13" class="node">
<title>static</title>
<path fill="#f8fafc" stroke="#1f2937" d="M969.88,-138C969.88,-138 926.12,-138 926.12,-138 920.12,-138 914.12,-132 914.12,-126 914.12,-126 914.12,-114 914.12,-114 914.12,-108 920.12,-102 926.12,-102 926.12,-102 969.88,-102 969.88,-102 975.88,-102 981.88,-108 981.88,-114 981.88,-114 981.88,-126 981.88,-126 981.88,-132 975.88,-138 969.88,-138"/>
<text xml:space="preserve" text-anchor="middle" x="948" y="-121.75" font-family="Helvetica,sans-Serif" font-size="10.00">Browser UI</text>
<text xml:space="preserve" text-anchor="middle" x="948" y="-110.5" font-family="Helvetica,sans-Serif" font-size="10.00">web/static/*</text>
</g>
<!-- serve&#45;&gt;static -->
<g id="edge14" class="edge">
<title>serve&#45;&gt;static</title>
<path fill="none" stroke="#475569" stroke-width="1.2" d="M785.14,-58.37C822.55,-72.62 870.91,-91.03 905,-104.01"/>
<polygon fill="#475569" stroke="#475569" stroke-width="1.2" points="903.6,-106.47 912.08,-106.7 905.6,-101.24 903.6,-106.47"/>
<text xml:space="preserve" text-anchor="middle" x="844.75" y="-93.6" font-family="Helvetica,sans-Serif" font-size="9.00">canvas/file streams</text>
</g>
<!-- web&#45;&gt;serve -->
<g id="edge17" class="edge">
<title>web&#45;&gt;serve</title>
<path fill="none" stroke="#475569" stroke-width="1.2" d="M519.26,-109.56C530.75,-103.9 543.65,-97.88 555.75,-93 594.43,-77.39 605.36,-76.97 645,-64 647.76,-63.1 650.57,-62.18 653.41,-61.25"/>
<polygon fill="#475569" stroke="#475569" stroke-width="1.2" points="654.1,-63.97 660.82,-58.81 652.35,-58.65 654.1,-63.97"/>
<text xml:space="preserve" text-anchor="middle" x="600.38" y="-93.45" font-family="Helvetica,sans-Serif" font-size="9.00">local or tunneled daemon</text>
</g>
<!-- pty -->
<g id="node11" class="node">
<title>pty</title>
<path fill="#f8fafc" stroke="#1f2937" d="M778.75,-211C778.75,-211 677.25,-211 677.25,-211 671.25,-211 665.25,-205 665.25,-199 665.25,-199 665.25,-187 665.25,-187 665.25,-181 671.25,-175 677.25,-175 677.25,-175 778.75,-175 778.75,-175 784.75,-175 790.75,-181 790.75,-187 790.75,-187 790.75,-199 790.75,-199 790.75,-205 784.75,-211 778.75,-211"/>
<text xml:space="preserve" text-anchor="middle" x="728" y="-194.75" font-family="Helvetica,sans-Serif" font-size="10.00">Terminal + SSH</text>
<text xml:space="preserve" text-anchor="middle" x="728" y="-183.5" font-family="Helvetica,sans-Serif" font-size="10.00">web/pty.py + web/ssh.py</text>
</g>
<!-- web&#45;&gt;pty -->
<g id="edge15" class="edge">
<title>web&#45;&gt;pty</title>
<path fill="none" stroke="#475569" stroke-width="1.2" d="M523.18,-142.51C533.69,-146.16 545.09,-149.91 555.75,-153 588.17,-162.4 624.53,-171.14 655.38,-178.04"/>
<polygon fill="#475569" stroke="#475569" stroke-width="1.2" points="654.58,-180.73 662.99,-179.72 655.79,-175.26 654.58,-180.73"/>
<text xml:space="preserve" text-anchor="middle" x="600.38" y="-175.92" font-family="Helvetica,sans-Serif" font-size="9.00">terminal transport</text>
</g>
<!-- store -->
<g id="node12" class="node">
<title>store</title>
<path fill="#f8fafc" stroke="#1f2937" d="M772,-112C772,-112 684,-112 684,-112 678,-112 672,-106 672,-100 672,-100 672,-88 672,-88 672,-82 678,-76 684,-76 684,-76 772,-76 772,-76 778,-76 784,-82 784,-88 784,-88 784,-100 784,-100 784,-106 778,-112 772,-112"/>
<text xml:space="preserve" text-anchor="middle" x="728" y="-95.75" font-family="Helvetica,sans-Serif" font-size="10.00">Auth/Hosts Store</text>
<text xml:space="preserve" text-anchor="middle" x="728" y="-84.5" font-family="Helvetica,sans-Serif" font-size="10.00">web/store.py (SQLite)</text>
</g>
<!-- web&#45;&gt;store -->
<g id="edge16" class="edge">
<title>web&#45;&gt;store</title>
<path fill="none" stroke="#475569" stroke-width="1.2" d="M523.21,-122.5C560.77,-117.25 618.05,-109.24 662.33,-103.04"/>
<polygon fill="#475569" stroke="#475569" stroke-width="1.2" points="662.52,-105.84 670.05,-101.96 661.74,-100.3 662.52,-105.84"/>
<text xml:space="preserve" text-anchor="middle" x="600.38" y="-117.45" font-family="Helvetica,sans-Serif" font-size="9.00">auth + sessions</text>
</g>
<!-- web&#45;&gt;static -->
<g id="edge18" class="edge">
<title>web&#45;&gt;static</title>
<path fill="none" stroke="#475569" stroke-width="1.2" d="M523.19,-137.73C533.7,-139.91 545.1,-141.9 555.75,-143 681.96,-156.03 831.9,-137.87 904.03,-127.05"/>
<polygon fill="#475569" stroke="#475569" stroke-width="1.2" points="904.4,-129.83 911.89,-125.85 903.56,-124.29 904.4,-129.83"/>
<text xml:space="preserve" text-anchor="middle" x="728" y="-147.86" font-family="Helvetica,sans-Serif" font-size="9.00">serves SPA</text>
</g>
<!-- tests -->
<g id="node14" class="node">
<title>tests</title>
<path fill="#f8fafc" stroke="#1f2937" d="M175.25,-279C175.25,-279 28,-279 28,-279 22,-279 16,-273 16,-267 16,-267 16,-255 16,-255 16,-249 22,-243 28,-243 28,-243 175.25,-243 175.25,-243 181.25,-243 187.25,-249 187.25,-255 187.25,-255 187.25,-267 187.25,-267 187.25,-273 181.25,-279 175.25,-279"/>
<text xml:space="preserve" text-anchor="middle" x="101.62" y="-262.75" font-family="Helvetica,sans-Serif" font-size="10.00">Test Suites</text>
<text xml:space="preserve" text-anchor="middle" x="101.62" y="-251.5" font-family="Helvetica,sans-Serif" font-size="10.00">unit / bdd / integration / system / gui</text>
</g>
<!-- tests&#45;&gt;mcp -->
<g id="edge19" class="edge">
<title>tests&#45;&gt;mcp</title>
<path fill="none" stroke="#475569" stroke-width="1.2" stroke-dasharray="5,2" d="M187.48,-266.16C319.56,-274.2 570.22,-289.46 676.91,-295.95"/>
<polygon fill="#475569" stroke="#475569" stroke-width="1.2" points="676.5,-298.73 684.66,-296.42 676.84,-293.14 676.5,-298.73"/>
<text xml:space="preserve" text-anchor="middle" x="377.75" y="-280.01" font-family="Helvetica,sans-Serif" font-size="9.00">protocol coverage</text>
</g>
<!-- tests&#45;&gt;adapter -->
<g id="edge21" class="edge">
<title>tests&#45;&gt;adapter</title>
<path fill="none" stroke="#475569" stroke-width="1.2" stroke-dasharray="5,2" d="M185.72,-279.21C189.2,-281.78 192.42,-284.69 195.25,-288 217.7,-314.21 192.94,-332.76 205.25,-365 231.09,-432.68 227.05,-498 299.5,-498 299.5,-498 299.5,-498 729,-498 824.35,-498 900.52,-394.35 931.71,-344.36"/>
<polygon fill="#475569" stroke="#475569" stroke-width="1.2" points="933.94,-346.09 935.72,-337.8 929.16,-343.16 933.94,-346.09"/>
<text xml:space="preserve" text-anchor="middle" x="482.88" y="-498.45" font-family="Helvetica,sans-Serif" font-size="9.00">state + events</text>
</g>
<!-- tests&#45;&gt;web -->
<g id="edge20" class="edge">
<title>tests&#45;&gt;web</title>
<path fill="none" stroke="#475569" stroke-width="1.2" stroke-dasharray="5,2" d="M155.36,-242.51C229.08,-216.65 361.93,-170.07 433.33,-145.02"/>
<polygon fill="#475569" stroke="#475569" stroke-width="1.2" points="434.23,-147.68 440.85,-142.39 432.38,-142.39 434.23,-147.68"/>
<text xml:space="preserve" text-anchor="middle" x="300.5" y="-203.79" font-family="Helvetica,sans-Serif" font-size="9.00">web/e2e</text>
</g>
<!-- docs -->
<g id="node15" class="node">
<title>docs</title>
<path fill="#f8fafc" stroke="#1f2937" d="M154.62,-333C154.62,-333 48.62,-333 48.62,-333 42.63,-333 36.62,-327 36.62,-321 36.62,-321 36.62,-309 36.62,-309 36.62,-303 42.62,-297 48.62,-297 48.62,-297 154.62,-297 154.62,-297 160.62,-297 166.62,-303 166.62,-309 166.62,-309 166.62,-321 166.62,-321 166.62,-327 160.62,-333 154.62,-333"/>
<text xml:space="preserve" text-anchor="middle" x="101.62" y="-316.75" font-family="Helvetica,sans-Serif" font-size="10.00">Architecture &amp; Spec Index</text>
<text xml:space="preserve" text-anchor="middle" x="101.62" y="-305.5" font-family="Helvetica,sans-Serif" font-size="10.00">docs/*</text>
</g>
<!-- docs&#45;&gt;cli -->
<g id="edge22" class="edge">
<title>docs&#45;&gt;cli</title>
<path fill="none" stroke="#475569" stroke-width="1.2" stroke-dasharray="5,2" d="M167.09,-331.04C199.25,-339.05 236.92,-348.43 263.85,-355.13"/>
<polygon fill="#475569" stroke="#475569" stroke-width="1.2" points="263.05,-357.81 271.49,-357.03 264.4,-352.38 263.05,-357.81"/>
<text xml:space="preserve" text-anchor="middle" x="230.38" y="-352.61" font-family="Helvetica,sans-Serif" font-size="9.00">contracts map</text>
</g>
<!-- docs&#45;&gt;mcp -->
<g id="edge23" class="edge">
<title>docs&#45;&gt;mcp</title>
<path fill="none" stroke="#475569" stroke-width="1.2" stroke-dasharray="5,2" d="M167.09,-313.35C291.85,-310.15 563.92,-303.18 676.59,-300.29"/>
<polygon fill="#475569" stroke="#475569" stroke-width="1.2" points="676.6,-303.09 684.53,-300.09 676.46,-297.49 676.6,-303.09"/>
</g>
<!-- ai -->
<g id="node16" class="node">
<title>ai</title>
<ellipse fill="#e2e8f0" stroke="#1f2937" cx="101.62" cy="-531" rx="61.16" ry="21.57"/>
<text xml:space="preserve" text-anchor="middle" x="101.62" y="-532.75" font-family="Helvetica,sans-Serif" font-size="10.00">AI Assistant</text>
<text xml:space="preserve" text-anchor="middle" x="101.62" y="-521.5" font-family="Helvetica,sans-Serif" font-size="10.00">(Codex/Claude)</text>
</g>
<!-- ai&#45;&gt;cli -->
<g id="edge1" class="edge">
<title>ai&#45;&gt;cli</title>
<path fill="none" stroke="#475569" stroke-width="1.2" d="M126.37,-510.86C162.52,-480.19 231.26,-421.88 270.37,-388.71"/>
<polygon fill="#475569" stroke="#475569" stroke-width="1.2" points="272.11,-390.91 276.39,-383.6 268.48,-386.64 272.11,-390.91"/>
<text xml:space="preserve" text-anchor="middle" x="230.38" y="-442.94" font-family="Helvetica,sans-Serif" font-size="9.00">invokes</text>
</g>
</g>
</svg>
